<svg xmlns="http://www.w3.org/2000/svg" xmlns:xlink="http://www.w3.org/1999/xlink" width="57" height="64" version="1.1" viewBox="0 0 57 64"><title>Group 13</title><desc>Created with Sketch.</desc><defs><filter id="filter-1" width="171.1%" height="160.4%" x="-35.6%" y="-30.2%" filterUnits="objectBoundingBox"><feOffset dx="0" dy="2" in="SourceAlpha" result="shadowOffsetOuter1"/><feGaussianBlur in="shadowOffsetOuter1" result="shadowBlurOuter1" stdDeviation="3"/><feColorMatrix in="shadowBlurOuter1" result="shadowMatrixOuter1" type="matrix" values="0 0 0 0 0 0 0 0 0 0 0 0 0 0 0 0 0 0 0.3 0"/><feMerge><feMergeNode in="shadowMatrixOuter1"/><feMergeNode in="SourceGraphic"/></feMerge></filter></defs><g id="Page-1" fill="none" fill-rule="evenodd" stroke="none" stroke-width="1"><g id="Artboard-Copy-16" transform="translate(-276.000000, -54.000000)"><g id="Group-13" transform="translate(282.000000, 58.000000)"><g id="Group-6-Copy"><g id="Group-4-Copy-2" filter="url(#filter-1)"><g id="Group-3-Copy-2" fill="#A22938" stroke="#FFF" stroke-width="1.5"><rect id="Rectangle" width="43.5" height="43.5" x=".75" y=".75" rx="8"/></g><polygon id="Triangle" fill="#FFF" points="22.5 47 26 52 19 52" transform="translate(22.500000, 49.500000) rotate(180.000000) translate(-22.500000, -49.500000)"/><polygon id="Triangle" fill="#FFF" points="22.5 45 28 53 17 53" transform="translate(22.500000, 49.000000) rotate(180.000000) translate(-22.500000, -49.000000)"/></g></g><g id="Group-8" fill="#FFF" transform="translate(11.000000, 11.000000)"><rect id="Rectangle" width="5.552" height="23" x="8.724" y="0" rx="2.776"/><path id="Rectangle" d="M11.5,-4.79616347e-14 C13.0330663,-4.82432544e-14 14.2758621,1.24279578 14.2758621,2.77586207 L14.2758621,20.2241379 C14.2758621,21.7572042 13.0330663,23 11.5,23 C9.96693371,23 8.72413793,21.7572042 8.72413793,20.2241379 L8.72413793,2.77586207 C8.72413793,1.24279578 9.96693371,-4.7680015e-14 11.5,-4.79616347e-14 Z" transform="translate(11.500000, 11.500000) rotate(90.000000) translate(-11.500000, -11.500000)"/></g></g></g></g></svg>