<svg xmlns="http://www.w3.org/2000/svg" xmlns:xlink="http://www.w3.org/1999/xlink" width="23" height="23" version="1.1" viewBox="0 0 23 23"><title>download (11) copy</title><desc>Created with Sketch.</desc><g id="Page-1" fill="none" fill-rule="evenodd" stroke="none" stroke-width="1"><g id="Artboard-Copy-17" transform="translate(-424.000000, -654.000000)"><g id="Group" transform="translate(335.000000, 415.000000)"><g id="Group-4" transform="translate(63.000000, 214.000000)"><g id="download-(11)-copy" transform="translate(21.000000, 20.000000)"><polygon id="Path" points="0 32 0 0 32 0 32 32"/><g id="Group-8" fill="#4A4A4A" transform="translate(5.000000, 5.000000)"><rect id="Rectangle" width="5.552" height="23" x="8.724" y="0" rx="2.776"/><path id="Rectangle" d="M11.5,-4.79616347e-14 C13.0330663,-4.82432544e-14 14.2758621,1.24279578 14.2758621,2.77586207 L14.2758621,20.2241379 C14.2758621,21.7572042 13.0330663,23 11.5,23 C9.96693371,23 8.72413793,21.7572042 8.72413793,20.2241379 L8.72413793,2.77586207 C8.72413793,1.24279578 9.96693371,-4.7680015e-14 11.5,-4.79616347e-14 Z" transform="translate(11.500000, 11.500000) rotate(90.000000) translate(-11.500000, -11.500000)"/></g></g></g></g></g></g></svg>